<?xml version="1.0" encoding="UTF-8" standalone="no"?>
<svg
   version="1.2"
   viewBox="0 0 499.99997 65.563355"
   width="499.99997"
   height="65.563354"
   id="svg4"
   xmlns="http://www.w3.org/2000/svg"
   xmlns:svg="http://www.w3.org/2000/svg">
  <title
     id="title1">3510189_515836-PIZDLV-276-ai</title>
  <defs
     id="defs1">
    <clipPath
       clipPathUnits="userSpaceOnUse"
       id="cp1">
      <path
         d="M 1285,500 H 535 V 0 h 750 z"
         id="path1" />
    </clipPath>
    <clipPath
       clipPathUnits="userSpaceOnUse"
       id="clipPath16">
      <rect
         style="fill:#000000;stroke-width:10.3641;stroke-linecap:round;stroke-linejoin:round;paint-order:markers stroke fill"
         id="rect17"
         width="499.99997"
         height="101.86335"
         x="-499.99997"
         y="861"
         transform="rotate(-90)" />
    </clipPath>
  </defs>
  <style
     id="style1">&#10;		.s0 { fill: #eedfe0 } &#10;	</style>
  <g
     id="BACKGROUND 2"
     transform="rotate(90,698.64998,-198.65001)"
     clip-path="url(#clipPath16)">
    <g
       id="g4"
       transform="translate(4)">
      <g
         id="&lt;Clip Group&gt;"
         clip-path="url(#cp1)">
        <g
           id="g2">
          <g
             id="g1">
            <path
               id="&lt;Path&gt;"
               class="s0"
               d="m 913.3,0 c 0,25 -20,25 -20,50 0,25 20,25 20,50 0,25 -20,25 -20,50 0,25 20,25 20,50 0,25 -20,25 -20,50 0,25 20,25 20,50 0,25 -20,25 -20,50 0,25 20,25 20,50 0,25 -20,25 -20,50 0,25 20,25 20,50 h 366.4 V 0 Z"
               style="fill:#faefda;fill-opacity:1" />
          </g>
        </g>
      </g>
    </g>
  </g>
</svg>
